<?xml version="1.0" encoding="UTF-8" standalone="no"?>
<svg
   version="1.0"
   width="256.000000pt"
   height="256.000000pt"
   viewBox="0 0 256.000000 256.000000"
   preserveAspectRatio="xMidYMid meet"
   id="svg1"
   sodipodi:docname="Familiewijzer-primary.svg"
   inkscape:version="1.3 (0e150ed6c4, 2023-07-21)"
   xmlns:inkscape="http://www.inkscape.org/namespaces/inkscape"
   xmlns:sodipodi="http://sodipodi.sourceforge.net/DTD/sodipodi-0.dtd"
   xmlns="http://www.w3.org/2000/svg"
   xmlns:svg="http://www.w3.org/2000/svg">
  <defs
     id="defs1" />
  <sodipodi:namedview
     id="namedview1"
     pagecolor="#ffffff"
     bordercolor="#000000"
     borderopacity="0.25"
     inkscape:showpageshadow="2"
     inkscape:pageopacity="0.0"
     inkscape:pagecheckerboard="0"
     inkscape:deskcolor="#d1d1d1"
     inkscape:document-units="pt"
     inkscape:zoom="2.2001953"
     inkscape:cx="170.43941"
     inkscape:cy="170.66667"
     inkscape:window-width="1920"
     inkscape:window-height="986"
     inkscape:window-x="-11"
     inkscape:window-y="-11"
     inkscape:window-maximized="1"
     inkscape:current-layer="svg1" />
  <g
     transform="translate(0.000000,256.000000) scale(0.100000,-0.100000)"
     fill="#000000"
     stroke="none"
     id="g1"
     style="fill:#f5ae50;fill-opacity:1">
    <path
       d="M1193 2390 c-180 -38 -327 -196 -356 -381 -20 -131 25 -284 110 -374 l38 -40 -91 -96 c-76 -80 -170 -200 -320 -405 -16 -21 -34 -33 -58 -37 -64 -10 -162 -65 -220 -123 -264 -264 -115 -720 255 -777 249 -38 483 134 522 384 27 177 -57 362 -208 458 l-45 29 83 108 c162 215 300 336 385 337 98 2 212 -103 387 -357 42 -61 64 -101 57 -104 -29 -9 -120 -86 -154 -130 -215 -271 -51 -682 293 -735 364 -56 640 321 480 656 -56 116 -185 220 -307 245 -36 7 -45 17 -124 134 -117 174 -179 254 -258 338 l-67 73 38 41 c175 189 144 512 -63 670 -99 76 -257 112 -377 86z m156 -240 c141 -40 203 -206 124 -328 -86 -133 -280 -133 -366 0 -108 167 51 383 242 328z m-670 -1330 c141 -40 203 -206 124 -328 -86 -133 -280 -133 -366 0 -108 167 51 383 242 328z m1320 -10 c180 -51 215 -291 59 -393 -101 -65 -235 -36 -301 65 -108 167 51 383 242 328z"
       id="path1"
       style="fill:#f5ae50;fill-opacity:1" />
  </g>
</svg>
